# xmcd
#
# Track frame offsets:
#	150
#	48473
#	74389
#	104971
#	147708
#	164823
#	206941
#
# Disc length: 3081 seconds
#
# Revision: 1
# Processed by: cddbd v1.5.2PL0 Copyright (c) Steve Scherf et al.
# Submitted via: audiograbber 1.83.01
#
DISCID=7e0c0707
DTITLE=Grateful Dead - 82-04-19 Baltimore Civic Centre, Baltimore MD
DYEAR=1900
DGENRE=
TTITLE0="The Raven" Space
TTITLE1=The Wheel
TTITLE2=Truckin'
TTITLE3=Stella Blue
TTITLE4=Around and Around
TTITLE5=Good Lovin'
TTITLE6=Brokedown Palace
EXTD=
EXTT0=
EXTT1=
EXTT2=
EXTT3=
EXTT4=
EXTT5=
EXTT6=
PLAYORDER=
